<svg width="20" height="14" viewBox="0 0 20 14" fill="none" xmlns="http://www.w3.org/2000/svg">
<path d="M9.782 0.719976C8.6089 0.704047 7.47103 1.12073 6.58564 1.89046C5.70025 2.6602 5.12937 3.72906 4.982 4.89298C5.26603 4.40902 5.66445 4.00214 6.14234 3.70802C6.62023 3.41389 7.16298 3.24151 7.723 3.20598C9.412 3.20598 10.697 5.17798 11.481 5.79298C12.2295 6.38426 13.1137 6.77943 14.0535 6.9427C14.9933 7.10596 15.9589 7.03216 16.863 6.72798C18.863 6.08998 19.797 3.86298 20 2.80698C19.031 4.18598 17.56 5.01398 15.741 4.03798C14.488 3.36498 13.551 0.599976 9.782 0.719976ZM4.8 6.97898C3.627 6.9628 2.48913 7.37926 1.60372 8.14883C0.718306 8.91841 0.147388 9.98716 0 11.151C0.284468 10.6665 0.683539 10.2594 1.16216 9.96522C1.64078 9.67107 2.18431 9.49895 2.745 9.46398C4.434 9.46398 5.719 11.436 6.503 12.051C7.25145 12.6423 8.13565 13.0376 9.07546 13.2008C10.0153 13.3641 10.981 13.2903 11.885 12.986C13.885 12.348 14.818 10.121 15.022 9.06498C14.052 10.444 12.582 11.273 10.763 10.296C9.51 9.62298 8.573 6.85298 4.8 6.97898Z" fill="white"/>
</svg>
